<?xml version="1.0" standalone="no"?><!DOCTYPE svg PUBLIC "-//W3C//DTD SVG 1.1//EN" "http://www.w3.org/Graphics/SVG/1.1/DTD/svg11.dtd"><svg t="1686278780955" class="icon" viewBox="0 0 1024 1024" version="1.1" xmlns="http://www.w3.org/2000/svg" p-id="1295" xmlns:xlink="http://www.w3.org/1999/xlink" width="200" height="200"><path d="M744.2432 919.1936H327.7312c-90.2656 0-163.3792-73.1648-163.3792-163.3792v-424.448c0-90.2656 73.1648-163.3792 163.3792-163.3792h416.512c90.2656 0 163.3792 73.1648 163.3792 163.3792v424.448c0 90.2144-73.1648 163.3792-163.3792 163.3792z" fill="#9bc6fc" p-id="1296"></path><path d="M683.4176 794.1632h-328.704c-19.8144 0-35.84-16.0256-35.84-35.84s16.0256-35.84 35.84-35.84h328.704c19.8144 0 35.84 16.0256 35.84 35.84s-16.0256 35.84-35.84 35.84zM550.7072 297.216l44.3392 89.8048a21.72928 21.72928 0 0 0 16.384 11.8784l99.1232 14.3872c17.8176 2.6112 24.9344 24.5248 12.032 37.0688l-71.7312 69.888c-5.12 5.0176-7.4752 12.1856-6.2464 19.2512l16.9472 98.7136c3.072 17.7664-15.616 31.3344-31.5392 22.9376l-88.6272-46.592a21.72928 21.72928 0 0 0-20.224 0l-88.6272 46.592c-15.9744 8.3968-34.6112-5.1712-31.5392-22.9376l16.9472-98.7136c1.2288-7.0656-1.1264-14.2336-6.2464-19.2512L339.8656 450.4064c-12.9024-12.5952-5.7856-34.5088 12.032-37.0688l99.1232-14.3872a21.8112 21.8112 0 0 0 16.384-11.8784l44.3392-89.8048c7.936-16.2304 30.976-16.2304 38.9632-0.0512z" fill="#FEC963" p-id="1297"></path><path d="M673.1776 725.0432h-328.704c-12.7488 0-23.04 10.2912-23.04 23.04s10.2912 23.04 23.04 23.04h328.704c12.7488 0 23.04-10.2912 23.04-23.04s-10.2912-23.04-23.04-23.04zM698.0608 381.44l-118.0672-17.152-52.7872-106.9568c-3.8912-7.8848-11.8784-12.8512-20.6848-12.8512s-16.7936 4.9664-20.6848 12.8512L433.152 364.288 315.0848 381.44c-8.704 1.28-15.872 7.3216-18.5856 15.6672a22.95808 22.95808 0 0 0 5.8368 23.6032l85.4016 83.2512-20.1728 117.5552a22.9888 22.9888 0 0 0 9.1648 22.528 22.98368 22.98368 0 0 0 24.2688 1.7408l105.5744-55.5008 105.5744 55.5008c3.3792 1.792 7.0656 2.6624 10.7008 2.6624 4.7616 0 9.5232-1.4848 13.568-4.4032a22.9888 22.9888 0 0 0 9.1648-22.528l-20.1728-117.5552 85.4016-83.2512a22.98368 22.98368 0 0 0 5.8368-23.6032 22.85056 22.85056 0 0 0-18.5856-15.6672z m-113.4592 97.9968a22.9888 22.9888 0 0 0-6.6048 20.3776l14.336 83.5072-75.008-39.424c-3.3792-1.7408-7.0144-2.6624-10.7008-2.6624-3.6864 0-7.3728 0.8704-10.7008 2.6624l-75.008 39.424L435.2 499.8144a22.9888 22.9888 0 0 0-6.6048-20.3776L367.9232 420.3008l83.8144-12.1856a22.9888 22.9888 0 0 0 17.3568-12.5952l37.4784-75.9808 37.4784 75.9808a22.9888 22.9888 0 0 0 17.3568 12.5952l83.8144 12.1856-60.6208 59.136z" fill="#474747" p-id="1298" data-spm-anchor-id="a313x.7781069.0.i2" class="selected"></path><path d="M729.344 87.2448H281.5488c-111.0016 0-201.3184 90.3168-201.3184 201.3184v452.3008c0 111.0016 90.3168 201.3184 201.3184 201.3184h447.7952c111.0016 0 201.3184-90.3168 201.3184-201.3184V288.6144c0-111.0528-90.3168-201.3696-201.3184-201.3696z m155.2384 653.6704c0 85.6064-69.632 155.2384-155.2384 155.2384H281.5488c-85.6064 0-155.2384-69.632-155.2384-155.2384V288.6144c0-85.6064 69.632-155.2384 155.2384-155.2384h447.7952c85.6064 0 155.2384 69.632 155.2384 155.2384v452.3008z" fill="#474747" p-id="1299"></path></svg>