<?xml version="1.0" standalone="no"?><!DOCTYPE svg PUBLIC "-//W3C//DTD SVG 1.1//EN" "http://www.w3.org/Graphics/SVG/1.1/DTD/svg11.dtd"><svg t="1686280911241" class="icon" viewBox="0 0 1024 1024" version="1.1" xmlns="http://www.w3.org/2000/svg" p-id="973" xmlns:xlink="http://www.w3.org/1999/xlink" width="200" height="200"><path d="M821.8624 213.4016c-90.5216-0.1536-181.0944-0.0512-271.616-0.0512s-181.0944-0.1024-271.616 0.0512c-67.4816 0.1024-98.3552 30.5664-98.4064 97.4848-0.1536 162.0992-0.1536 324.1472 0 486.2464 0.0512 67.3792 30.5664 97.8432 98.3552 97.9456 181.0944 0.2048 362.1888 0.2048 543.2832 0 65.6896-0.1024 97.1776-31.744 97.2288-96.6656 0.0512-162.9184 0.0512-325.7856 0-488.704-0.0512-65.0752-31.3856-96.1536-97.2288-96.3072z m-496.9472 50.2272c46.1824 0 83.6096 37.4272 83.6096 83.6096s-37.4272 83.6096-83.6096 83.6096-83.6096-37.4272-83.6096-83.6096 37.4784-83.6096 83.6096-83.6096z m453.0688 483.6352H250.9312c-12.3904 0-19.4048-14.1312-11.9808-23.9616 30.5664-40.4992 91.4944-121.2928 116.8384-154.9312a14.94016 14.94016 0 0 1 23.4496-0.5632c20.2752 24.4224 60.9792 73.1136 81.1008 97.2288 6.0928 7.3216 17.408 7.168 23.2448-0.3584 27.2896-34.8672 96.1024-122.7776 123.7504-158.3104a14.9504 14.9504 0 0 1 23.7568 0.1536c32.4608 42.9056 121.344 165.12 159.0272 216.9856 7.168 9.8816 0.1024 23.7568-12.1344 23.7568z" fill="#9bc6fc" p-id="974"></path><path d="M835.6352 711.2704c-45.8752-61.4912-132.5056-175.6672-171.264-226.7136-10.4448-13.7728-30.976-11.264-37.7344-1.6896-30.8736 43.6736-105.0112 147.8144-135.5264 190.6688-6.5536 9.216-19.1488 9.4208-26.0096 0.4608-22.528-29.6448-45.3632-70.6048-68.0448-100.6592-6.912-9.1136-19.712-8.8064-26.2144 0.7168-28.2624 41.3184-96.4096 140.6976-130.56 190.5152-8.3456 12.1344-0.4096 29.4912 13.3632 29.4912h531.0976c75.776-0.0512 71.2192-58.88 50.8928-82.7904z" fill="#FEC963" p-id="975"></path><path d="M335.3088 357.9392m-95.6416 0a95.6416 95.6416 0 1 0 191.2832 0 95.6416 95.6416 0 1 0-191.2832 0Z" fill="#FEC963" p-id="976"></path><path d="M811.6736 122.7264c-69.5296-0.1024-139.0592-0.1024-208.64-0.0512H423.7312c-69.376 0-138.7008-0.0512-208.0768 0.0512-86.784 0.1536-130.8672 43.8784-130.9696 129.9456-0.2048 174.848-0.2048 354.304 0 533.4016 0.1024 86.4768 44.1344 130.3552 130.9184 130.4576a290862.36672 290862.36672 0 0 0 595.968 0c84.7872-0.1024 129.6384-44.7488 129.6384-129.0752 0.0512-178.688 0.0512-357.376 0-536.1152 0-83.968-44.8-128.4608-129.536-128.6144z m83.5072 664.7296c0 58.88-24.2688 82.944-83.6096 82.9952-194.6624 0.256-395.1616 0.256-595.8656 0-61.7984-0.0512-84.8384-22.9376-84.8896-84.4288-0.2048-179.0464-0.2048-358.5024 0-533.3504 0.0512-60.2624 23.8592-83.8144 84.9408-83.9168 39.5776-0.0512 79.1552-0.1024 118.784-0.1024h268.544c69.5296-0.0512 139.008-0.0512 208.5376 0.0512 59.3408 0.1024 83.5584 24.0128 83.6096 82.5856 0 178.7904 0 357.4784-0.0512 536.1664z" fill="#474747" p-id="977"></path><path d="M326.4 439.7568c51.6096 0 93.6448-41.984 93.6448-93.6448 0-51.6096-41.984-93.6448-93.6448-93.6448-51.6096 0-93.6448 41.984-93.6448 93.6448 0 51.6096 41.984 93.6448 93.6448 93.6448z m0-141.2096c26.2144 0 47.5648 21.3504 47.5648 47.5648s-21.3504 47.5648-47.5648 47.5648c-26.2144 0-47.5648-21.3504-47.5648-47.5648s21.2992-47.5648 47.5648-47.5648zM645.0176 499.2512a37.41696 37.41696 0 0 0-29.696-14.8992 37.34528 37.34528 0 0 0-29.9008 14.4896c-24.832 31.8976-83.9168 107.4176-113.5616 145.2544-20.8384-24.9344-54.272-65.024-71.936-86.2208a37.34016 37.34016 0 0 0-29.7984-13.568 37.26336 37.26336 0 0 0-29.0816 14.9504c-24.576 32.6144-83.712 111.0016-113.3568 150.272a37.30944 37.30944 0 0 0-3.6352 39.3728 37.38624 37.38624 0 0 0 33.6384 20.8384h511.4368a37.4784 37.4784 0 0 0 33.4848-20.5312 37.35552 37.35552 0 0 0-3.072-39.1168c-35.8912-49.408-122.88-168.96-154.5216-210.8416z m-380.5184 238.1312z m10.2912-13.6704c28.672-37.9904 72.3968-96 96.5632-128.1024 20.9408 25.1904 54.3744 65.1776 71.8336 86.0672a37.30944 37.30944 0 0 0 29.44 13.4656 37.51936 37.51936 0 0 0 28.9792-14.3872c24.4736-31.232 83.3024-106.3936 113.3056-144.896 32.512 43.4688 100.4032 136.704 137.5232 187.8016H274.7904z" fill="#474747" p-id="978"></path></svg>