<?xml version="1.0" standalone="no"?><!DOCTYPE svg PUBLIC "-//W3C//DTD SVG 1.1//EN" "http://www.w3.org/Graphics/SVG/1.1/DTD/svg11.dtd"><svg t="1686278755997" class="icon" viewBox="0 0 1024 1024" version="1.1" xmlns="http://www.w3.org/2000/svg" p-id="973" xmlns:xlink="http://www.w3.org/1999/xlink" width="200" height="200"><path d="M853.3504 659.3536c-10.9056-9.3184-22.2208-18.1248-34.2528-27.7504a318.11584 318.11584 0 0 1-46.4384 81.8688c-21.9136 27.904-48.1792 50.6368-78.0288 69.376-2.2528 1.3824-5.4272 1.2288-8.192 1.7408 0.4608-3.0208-20.1728-5.4272-18.5344-7.5264 63.9488-81.5104 81.2544-173.5168 54.8864-266.8544-9.728-34.5088-26.4192-65.9456-48.5888-94.0032-5.2224-6.6048-28.2624-37.376-35.0208-42.752-2.7648 7.68-8.4992 34.5088-9.3184 42.3936-17.5104 40.0896-26.2144 55.5008-62.208 71.936-34.5088 15.7696-71.0656 23.6032-108.544 27.4944-29.2864 3.0208-67.2768 9.0112-96.1024 14.336-79.1552 16.0256-69.7344 55.3472-68.4032 93.3888 2.3552 69.4784 33.792 125.952 85.6064 170.6496 3.4816 3.0208 7.4752 5.5808 10.496 8.96 1.7408 1.8944 2.048 5.12 3.0208 7.7312-2.7136 0.0512-5.9904 1.1776-8.0896 0-18.5344-9.984-37.7856-18.944-55.04-30.9248-46.1312-32.0512-49.5616-81.4592-71.936-133.5296-0.9216-2.0992-2.0992-4.0448-3.6352-7.0656-12.1344 12.8512-24.9856 23.04-42.3936 26.112-41.7792 7.3728-80.128-23.04-80.8448-65.792-0.7168-43.7248-0.5632-87.4496 0-131.1232 0.4096-30.3616 19.0464-54.6816 47.9744-63.7952 6.2976-1.9968 9.1648-5.1712 10.9056-11.4176 30.208-109.0048 95.7952-188.8768 196.3008-238.2336 63.0784-30.976 130.3552-40.96 200.0896-31.8464 86.4256 11.3152 159.4368 49.7664 219.136 113.5104 40.96 43.7248 69.12 95.1808 84.6336 153.3952 2.2016 8.192 5.6832 12.5952 14.2336 15.4624 27.4432 9.2672 45.568 34.5088 46.0288 64.4096 0.6656 42.5472 0.9728 85.1456-0.1024 127.6416-0.7168 27.8016-13.8752 48.64-39.1168 62.208-17.2544 9.1648-53.9136 3.4816-58.5216 0z" fill="#9bc6fc" p-id="974"></path><path d="M799.0272 408.576c-14.336 0-27.904-8.704-33.4336-22.8864-2.8672-7.2704-72.8064-179.5584-247.2448-179.5584-175.104 0-247.7568 164.9664-250.7264 172.032a35.88096 35.88096 0 0 1-47.0016 18.944c-18.176-7.7312-26.7264-28.672-19.0464-46.848 3.6864-8.8064 93.44-215.7568 316.7744-215.7568 224.0512 0 310.528 216.064 314.0608 225.28 7.168 18.432-1.9968 39.2192-20.4288 46.3872-4.2496 1.5872-8.6528 2.4064-12.9536 2.4064zM425.728 700.8768c34.816 14.3872 105.472 33.5872 186.6752-0.256 9.6768-4.0448 18.688 7.7824 13.824 18.3808-20.6336 45.1584-63.6416 67.5328-107.52 67.5328-44.7488 0-84.9408-16.2304-106.5472-67.2256-4.4544-10.5984 4.0448-22.3232 13.568-18.432z" fill="#FEC963" p-id="975"></path><path d="M976.128 445.7984c-0.6656-41.8816-26.4192-77.3632-65.6384-90.4192-0.1024-0.0512-0.2048-0.0512-0.3072-0.1024-0.0512-0.1536-0.1024-0.3584-0.1536-0.5632-17.8688-66.304-50.5856-124.8256-97.28-174.0288-68.864-72.6016-153.4464-115.8144-251.3408-128.4608-81.3568-10.496-158.6688 1.6384-229.9392 36.1984-113.7152 55.0912-189.0816 144.6912-224.2048 266.752-39.2704 13.4144-64.8704 48.0256-65.4336 89.0368-0.7168 53.7088-0.7168 98.5088 0 141.0048 0.4608 27.9552 13.056 54.1696 34.5088 71.8848 22.1184 18.2784 51.3024 25.856 80.128 20.8384 13.4144-2.3552 24.7296-7.5264 34.304-13.824 25.9072 50.6368 62.8736 92.6208 110.1312 125.0304 15.0528 10.2912 31.0272 18.5344 46.4896 26.4192 5.12 2.6624 10.2912 5.2736 15.36 7.9872 4.864 2.6112 9.6768 3.2256 13.5168 3.2256 2.56 0 4.6592-0.3072 6.1952-0.4608l0.4096-0.1024c7.4752-0.1536 14.3872-3.84 18.5856-10.0352s5.1712-13.8752 2.56-20.8896l-0.3072-1.024c-0.9216-3.2768-2.6112-9.4208-7.6288-14.9504-3.5328-3.84-7.2704-6.7072-10.24-9.0112-1.0752-0.8192-2.1504-1.6384-3.2256-2.56-53.2992-45.3632-80.3328-99.4304-82.5856-165.2736-1.024-30.1056 13.9264-49.5104 42.1376-54.6304 20.4288-3.6864 41.1648-5.4272 63.1296-7.2192 10.0864-0.8192 20.1728-1.6384 30.208-2.6624 48.1792-4.9152 89.0368-15.1552 124.8256-31.3344 46.3872-20.9408 73.5232-51.3536 82.5856-92.672 18.5856 25.4976 32.2048 53.0432 40.5504 82.0224 32.1536 112.384 21.8112 193.5872-33.5872 263.2704-5.888 7.3728-6.2464 15.6672-6.4 19.6608v0.7168a23.04 23.04 0 0 0 6.7072 20.224 22.91712 22.91712 0 0 0 20.3264 6.0416l1.1264-0.1536c3.328-0.3584 9.472-1.024 15.616-4.8128 35.6864-22.0672 66.0992-48.7936 90.5216-79.4624 16.3328-20.5312 30.4128-42.8544 41.984-66.6112 10.2912 6.4 22.9376 13.1072 36.608 17.7152-16.64 47.9232-83.456 186.2656-302.5408 200.0896-8.3456-24.7296-31.6928-42.5472-59.2384-42.5472-34.56 0-62.5664 28.0064-62.5664 62.5664 0 34.56 28.0064 62.5664 62.5664 62.5664 25.1392 0 46.7968-14.848 56.7296-36.2496 154.9824-8.3456 242.5344-73.728 289.0752-128.256 40.0384-46.8992 56.9856-93.2864 63.0784-114.0736 6.7072-1.4848 13.2608-4.096 19.5072-8.0896 34.816-22.1184 52.1728-50.0736 53.0944-85.4016 1.2288-48.3328 0.7168-96.5632 0.0512-137.3696z m-46.1824 136.3456c-0.512 19.8656-9.728 33.6896-31.744 47.7184-16.2816 10.3424-55.7056-12.9536-73.1648-27.7504-5.6832-4.8128-13.312-6.6048-20.5312-4.8128s-13.1072 7.0144-15.8208 13.9264a316.3648 316.3648 0 0 1-56.064 92.6208c27.8528-81.2032 12.2368-161.4848-4.6592-220.5184-11.1616-38.9632-30.3104-75.52-56.8832-108.6464-5.9392-7.424-13.056-12.3392-19.3024-16.6912-2.048-1.4336-4.1472-2.8672-6.0928-4.4032a23.08096 23.08096 0 0 0-35.8912 10.1376c-0.768 2.1504-1.7408 4.3008-2.6624 6.4-2.816 6.4-6.3488 14.3872-7.3728 23.7056-3.5328 32.3584-21.4528 54.1696-58.1632 70.7584-31.6416 14.2848-66.7648 22.9888-110.5408 27.4944-9.728 0.9728-19.5072 1.792-29.2864 2.6112-22.1184 1.792-44.9536 3.6864-67.6352 7.7824-51.1488 9.3184-81.8176 48.2304-79.9744 101.5808 1.3312 38.6048 10.0864 74.4448 26.112 107.2128-23.552-24.6784-42.4448-53.3504-56.576-85.7088-0.9216-2.0992-1.9456-4.096-3.2768-6.5024-0.4096-0.768-0.9216-1.6384-1.4336-2.6112a23.08608 23.08608 0 0 0-17.2032-12.032 23.24992 23.24992 0 0 0-19.8656 6.912c-12.4928 13.056-22.1184 19.2-33.2288 21.1456-15.5136 2.7136-31.1808-1.28-42.8544-10.9568-11.2128-9.2672-17.5104-22.4256-17.7664-37.1712-0.7168-42.0352-0.7168-86.3744 0-139.6224 0.3072-22.272 13.6704-39.68 35.7888-46.5408 14.2336-4.4032 23.1424-13.568 27.1872-28.0064 30.8736-109.9264 98.4064-190.8224 200.704-240.384 63.0272-30.5664 131.6352-41.3184 203.9296-31.9488 87.0912 11.264 162.4064 49.7664 223.7952 114.4832 41.3184 43.5712 70.3488 95.488 86.1696 154.2656 4.5056 16.6912 14.1824 26.9824 30.4128 32.4096 20.3776 6.8096 33.792 25.3952 34.1504 47.4624 0.512 40.3968 1.024 88.0128-0.256 135.68z" fill="#474747" p-id="976"></path><path d="M513.2288 131.8912c-214.8864 0-301.3632 199.4752-304.9472 207.9232a23.02976 23.02976 0 0 0 42.4448 17.8688c0.768-1.792 77.824-179.7632 262.5024-179.7632 183.4496 0 256.2048 180.0704 259.1744 187.6992a23.02976 23.02976 0 0 0 29.8496 13.1072c11.8784-4.608 17.7664-17.9712 13.1584-29.7984-3.4816-8.8064-86.8352-217.0368-302.1824-217.0368zM614.9632 715.3664c4.608-8.6016-3.9424-18.1248-13.1072-14.8992-76.9536 27.4432-143.9232 11.8784-176.896 0.2048-9.0112-3.1744-17.1008 6.3488-12.8512 14.8992 20.48 41.3696 58.5728 54.4768 100.9664 54.4768 41.5744 0.0512 82.3296-18.0736 101.888-54.6816z" fill="#474747" p-id="977"></path></svg>