<?xml version="1.0" standalone="no"?><!DOCTYPE svg PUBLIC "-//W3C//DTD SVG 1.1//EN" "http://www.w3.org/Graphics/SVG/1.1/DTD/svg11.dtd"><svg t="1686275866340" class="icon" viewBox="0 0 1024 1024" version="1.1" xmlns="http://www.w3.org/2000/svg" p-id="1085" xmlns:xlink="http://www.w3.org/1999/xlink" width="200" height="200"><path d="M254.220457 716.393247h110.331678l452.512413-452.512413-107.789474-107.789474L254.220457 610.129096zM780.965243 84.401192l107.789474 107.789473a101.688183 101.688183 0 0 1 0 143.888779l-452.512413 452.512413a101.688183 101.688183 0 0 1-71.690169 29.998014H231.340616A76.266137 76.266137 0 0 1 152.532274 741.815293V610.129096a101.688183 101.688183 0 0 1 29.998014-71.690168l452.512413-452.512414a101.688183 101.688183 0 0 1 145.922542-1.525322zM105.247269 969.596822a50.844091 50.844091 0 1 1 0-101.688182h813.505462a50.844091 50.844091 0 0 1 0 101.688182z" fill="#9b9b9b" p-id="1086"></path></svg>