<?xml version="1.0" standalone="no"?><!DOCTYPE svg PUBLIC "-//W3C//DTD SVG 1.1//EN" "http://www.w3.org/Graphics/SVG/1.1/DTD/svg11.dtd"><svg t="1686278764068" class="icon" viewBox="0 0 1024 1024" version="1.1" xmlns="http://www.w3.org/2000/svg" p-id="1134" xmlns:xlink="http://www.w3.org/1999/xlink" width="200" height="200"><path d="M780.8 192.1024H299.2128c-66.816 0-121.4976 54.6816-121.4976 121.4976v291.072c0 80.1792 65.5872 145.7664 145.7664 145.7664h17.92l112.64 108.8512c17.664 17.0496 40.4992 25.6 63.3856 25.6 22.2208 0 44.4928-8.0896 62.0032-24.32l118.8864-110.1312h87.5008c87.5008 0 158.464-70.9632 158.464-158.464V355.584c0-89.9072-73.5744-163.4816-163.4816-163.4816z" fill="#9bc6fc" p-id="1135"></path><path d="M741.4272 333.3632H325.3248c-19.8144 0-35.84 16.0256-35.84 35.84s16.0256 35.84 35.84 35.84h416.1536c19.8144 0 35.84-16.0256 35.84-35.84a35.8912 35.8912 0 0 0-35.8912-35.84zM567.3472 526.6944H330.4448c-19.8144 0-35.84 16.0256-35.84 35.84s16.0256 35.84 35.84 35.84h236.9024c19.8144 0 35.84-16.0256 35.84-35.84s-16.0768-35.84-35.84-35.84z" fill="#FEC963" p-id="1136"></path><path d="M517.5808 896.3072c-28.9792 0-56.4224-11.1104-77.2608-31.232l-102.0928-98.6624H259.7376c-97.1264 0-176.128-79.0016-176.128-176.128V298.7008c0-97.1264 79.0016-176.128 176.128-176.128h517.12c97.1264 0 176.128 79.0016 176.128 176.128v291.584c0 97.1264-79.0016 176.128-176.128 176.128h-75.52l-108.2368 100.3008a110.68416 110.68416 0 0 1-75.52 29.5936zM259.7376 168.6528c-71.7312 0-130.048 58.3168-130.048 130.048v291.584c0 71.7312 58.3168 130.048 130.048 130.048h87.7568c5.9904 0 11.7248 2.304 16.0256 6.4512l108.8 105.1648a64.8192 64.8192 0 0 0 45.2608 18.2784c16.4864 0 32.1536-6.144 44.2368-17.3568l114.8416-106.4448c4.2496-3.9424 9.8304-6.144 15.6672-6.144h84.5312c71.7312 0 130.048-58.3168 130.048-130.048V298.7008c0-71.7312-58.3168-130.048-130.048-130.048h-517.12z" fill="#474747" p-id="1137"></path><path d="M731.4944 372.4288H315.3408c-12.7488 0-23.04-10.2912-23.04-23.04s10.2912-23.04 23.04-23.04h416.1536a23.04 23.04 0 0 1 0 46.08zM557.3632 565.76H320.4608c-12.7488 0-23.04-10.2912-23.04-23.04s10.2912-23.04 23.04-23.04h236.9024c12.7488 0 23.04 10.2912 23.04 23.04s-10.2912 23.04-23.04 23.04z" fill="#474747" p-id="1138"></path></svg>