<?xml version="1.0" standalone="no"?><!DOCTYPE svg PUBLIC "-//W3C//DTD SVG 1.1//EN" "http://www.w3.org/Graphics/SVG/1.1/DTD/svg11.dtd"><svg t="1685589307956" class="icon" viewBox="0 0 1084 1024" version="1.1" xmlns="http://www.w3.org/2000/svg" p-id="8427" xmlns:xlink="http://www.w3.org/1999/xlink" width="211.71875" height="200"><path d="M990.900309 512c0 231.253333-194.56 418.133333-435.2 418.133333s-435.2-186.88-435.2-418.133333 194.56-418.133333 435.2-418.133333 435.2 186.88 435.2 418.133333" fill="#FFE04A" p-id="8428"></path><path d="M555.700309 942.933333C309.086976 942.933333 107.700309 749.226667 107.700309 512S308.233643 81.066667 555.700309 81.066667s448 192.853333 448 430.933333c0 237.226667-200.533333 430.933333-448 430.933333z m0-836.266666C322.740309 106.666667 132.446976 288.426667 132.446976 512s189.44 405.333333 423.253333 405.333333 423.253333-181.76 423.253334-405.333333-190.293333-405.333333-423.253334-405.333333z" fill="#545971" p-id="8429"></path><path d="M553.140309 798.72c-179.2 0-333.653333-57.173333-407.893333-180.053333C196.446976 793.6 359.433643 921.6 553.140309 921.6c193.706667 0 356.693333-128 407.893334-302.933333-73.386667 122.88-228.693333 180.053333-407.893334 180.053333" fill="#FFD05A" p-id="8430"></path><path d="M309.086976 468.48S43.700309 335.36 182.793643 216.746667c75.946667-48.64 125.44 13.653333 125.44 13.653333s49.493333-62.293333 125.44-13.653333c144.213333 122.88-124.586667 251.733333-124.586667 251.733333" fill="#DD6B73" p-id="8431"></path><path d="M309.086976 480.426667l-4.266667-2.56c-6.826667-3.413333-160.426667-81.066667-171.52-175.786667-4.266667-34.133333 10.24-65.706667 43.52-93.866667l0.853334-0.853333c64.853333-40.96 112.64-9.386667 130.56 7.68 18.773333-16.213333 66.56-48.64 130.56-7.68l0.853333 0.853333c34.986667 29.866667 50.346667 62.293333 46.08 97.28C473.780309 400.213333 320.180309 474.453333 314.206976 477.866667l-5.12 2.56zM188.766976 225.28c-27.306667 23.04-38.4 47.786667-35.84 74.24 9.386667 75.093333 130.56 143.36 156.16 157.013333 25.6-12.8 145.92-79.36 155.306667-153.6 3.413333-27.306667-9.386667-53.76-38.4-78.506666-66.56-41.813333-109.226667 9.386667-110.933334 11.946666l-8.533333 10.24-8.533333-10.24c0-1.706667-42.666667-52.906667-109.226667-11.093333z" fill="#545971" p-id="8432"></path><path d="M88.073643 371.2c-7.68 0-12.8-5.973333-12.8-12.8 1.706667-45.226667 11.093333-96.426667 63.146666-128 5.973333-3.413333 13.653333-1.706667 17.066667 4.266667 3.413333 5.973333 1.706667 13.653333-4.266667 17.066666-34.133333 20.48-48.64 51.2-51.2 107.52 0.853333 6.826667-5.12 11.946667-11.946666 11.946667zM13.833643 417.28c-6.826667 0-11.946667-5.12-12.8-11.946667-3.413333-45.226667-0.853333-96.426667 46.933333-134.826666 5.12-4.266667 13.653333-3.413333 17.92 1.706666 4.266667 5.12 3.413333 13.653333-1.706667 17.92-31.573333 25.6-42.666667 58.026667-38.4 113.493334 0.853333 6.826667-4.266667 12.8-11.093333 13.653333h-0.853333zM1005.406976 347.306667c-6.826667 0-11.946667-5.12-12.8-11.093334-5.12-55.466667-21.333333-86.186667-55.466667-104.96-5.973333-3.413333-8.533333-11.093333-5.12-17.066666s11.093333-8.533333 17.066667-5.12c52.906667 29.013333 64.853333 79.36 68.266667 124.586666 0.853333 6.826667-4.266667 12.8-11.093334 13.653334h-0.853333zM1066.846976 393.386667h-2.56c-6.826667-1.706667-11.093333-7.68-10.24-14.506667 10.24-54.613333 3.413333-88.746667-24.746667-116.053333-5.12-5.12-5.12-12.8 0-17.92 5.12-5.12 12.8-5.12 17.92 0 43.52 42.666667 40.106667 93.866667 31.573334 139.093333-0.853333 5.12-5.973333 9.386667-11.946667 9.386667z" fill="#545971" p-id="8433"></path><path d="M312.500309 306.346667m-175.786666 0a175.786667 175.786667 0 1 0 351.573333 0 175.786667 175.786667 0 1 0-351.573333 0Z" fill="#E8F9F9" p-id="8434"></path><path d="M312.500309 494.933333C208.393643 494.933333 123.913643 410.453333 123.913643 306.346667s84.48-188.586667 188.586666-188.586667 188.586667 84.48 188.586667 188.586667S416.606976 494.933333 312.500309 494.933333z m0-351.573333C222.900309 143.36 149.513643 216.746667 149.513643 306.346667S222.900309 469.333333 312.500309 469.333333s162.986667-73.386667 162.986667-162.986666-72.533333-162.986667-162.986667-162.986667z" fill="#545971" p-id="8435"></path><path d="M803.166976 306.346667m-175.786667 0a175.786667 175.786667 0 1 0 351.573334 0 175.786667 175.786667 0 1 0-351.573334 0Z" fill="#E8F9F9" p-id="8436"></path><path d="M803.166976 494.933333c-104.106667 0-188.586667-84.48-188.586667-188.586666s84.48-188.586667 188.586667-188.586667c104.106667 0 188.586667 84.48 188.586667 188.586667S907.273643 494.933333 803.166976 494.933333z m0-351.573333c-90.453333 0-162.986667 73.386667-162.986667 162.986667S713.566976 469.333333 803.166976 469.333333c90.453333 0 162.986667-73.386667 162.986667-162.986666s-72.533333-162.986667-162.986667-162.986667z" fill="#545971" p-id="8437"></path><path d="M330.420309 293.546667v-69.12c21.333333 0.853333 29.866667 4.266667 43.52 11.946666v-24.746666c-9.386667-4.266667-17.92-6.826667-43.52-7.68V179.2h-20.48v24.746667c-19.626667 1.706667-44.373333 7.68-56.32 17.066666-12.8 9.386667-18.773333 21.333333-18.773333 34.133334 0 11.093333 4.266667 21.333333 12.8 29.013333 8.533333 8.533333 34.986667 17.066667 63.146667 26.453333v67.413334c-26.453333-0.853333-57.173333-5.973333-74.24-16.213334v25.6c17.066667 7.68 47.786667 11.946667 74.24 11.946667v28.16h20.48v-29.866667c21.333333-2.56 46.08-7.68 58.88-16.213333 12.8-8.533333 18.773333-19.626667 18.773333-33.28 0-11.093333-5.12-20.48-14.506667-29.013333-11.093333-8.533333-37.546667-17.066667-64-25.6z m-20.48-7.68c-12.8-5.12-29.866667-10.24-34.986666-14.506667-5.12-5.12-6.826667-11.093333-6.826667-17.92 0-15.36 19.626667-24.746667 41.813333-28.16v60.586667z m20.48 91.306666v-58.88c23.893333 9.386667 44.373333 13.653333 43.52 31.573334 0 17.92-19.626667 23.893333-43.52 27.306666z" fill="#00A0E9" p-id="8438"></path><path d="M337.246976 433.493333h-33.28v-28.16c-23.04-0.853333-52.053333-4.266667-69.973333-11.946666l-3.413334-1.706667v-40.96l9.386667 5.973333c13.653333 7.68 38.4 13.653333 64.853333 15.36V315.733333c-28.16-9.386667-52.053333-17.92-60.586666-26.453333-9.386667-9.386667-14.506667-20.48-14.506667-34.133333 0-15.36 6.826667-28.16 21.333333-39.253334 12.8-9.386667 34.986667-15.36 54.613334-17.92v-25.6H337.246976V196.266667c21.333333 0.853333 29.866667 3.413333 39.253333 8.533333l3.413334 1.706667v39.253333l-9.386667-5.12c-11.093333-5.973333-17.92-9.386667-34.133333-11.093333v58.026666c25.6 8.533333 50.346667 17.066667 60.586666 25.6 11.093333 10.24 17.066667 21.333333 17.066667 34.133334 0 15.36-6.826667 28.16-21.333333 38.4-14.506667 10.24-41.813333 15.36-56.32 17.066666v30.72z m-20.48-12.8h7.68v-29.013333l5.973333-0.853333c19.626667-1.706667 44.373333-6.826667 55.466667-15.36 10.24-7.68 16.213333-16.213333 16.213333-28.16 0-8.533333-4.266667-17.066667-12.8-23.893334-8.533333-7.68-34.986667-16.213333-58.88-23.893333l-5.973333-1.706667v-80.213333h6.826667c17.066667 0.853333 27.306667 3.413333 36.693333 7.68v-10.24c-6.826667-2.56-15.36-5.12-36.693333-5.12h-5.973334v-23.893333h-7.68v23.893333l-5.973333 0.853333c-17.066667 1.706667-41.813333 6.826667-53.76 16.213334-11.093333 8.533333-16.213333 17.92-16.213333 29.013333 0 9.386667 3.413333 17.92 10.24 24.746667 6.826667 6.826667 32.426667 15.36 57.173333 23.893333l7.68 2.56v78.506667h-6.826667c-20.48-0.853333-47.786667-4.266667-67.413333-12.8v10.24c15.36 5.973333 41.813333 9.386667 67.413333 9.386666h6.826667v28.16z m7.68-35.84v-75.946666l8.533333 3.413333c3.413333 0.853333 5.973333 2.56 9.386667 3.413333 20.48 7.68 39.253333 14.506667 38.4 34.133334-0.853333 25.6-32.426667 30.72-49.493333 33.28l-6.826667 1.706666z m12.8-57.173333v41.813333c22.186667-4.266667 30.72-10.24 30.72-19.626666 0-10.24-11.093333-14.506667-30.72-22.186667z m-20.48-32.426667l-8.533333-3.413333c-3.413333-1.706667-7.68-2.56-11.946667-4.266667-12.8-4.266667-21.333333-7.68-25.6-11.946666-5.973333-5.973333-9.386667-13.653333-9.386667-22.186667 0-17.066667 17.92-29.866667 46.933334-34.133333l7.68-0.853334v76.8z m-12.8-62.293333c-17.92 4.266667-29.013333 11.946667-29.013333 20.48 0 5.973333 1.706667 10.24 5.12 13.653333 2.56 2.56 12.8 5.973333 20.48 8.533334 0.853333 0 2.56 0.853333 3.413333 0.853333v-43.52z" fill="#00A0E9" p-id="8439"></path><path d="M883.380309 319.146667c-10.24-8.533333-36.693333-17.066667-62.293333-25.6v-69.12c21.333333 0.853333 29.866667 4.266667 43.52 11.946666v-24.746666c-9.386667-4.266667-17.92-6.826667-43.52-7.68V179.2h-20.48v24.746667c-19.626667 1.706667-44.373333 7.68-56.32 17.066666-12.8 9.386667-18.773333 21.333333-18.773333 34.133334 0 11.093333 4.266667 21.333333 12.8 29.013333 8.533333 8.533333 34.986667 17.066667 63.146666 26.453333v67.413334c-26.453333-0.853333-57.173333-5.973333-74.24-16.213334v25.6c17.066667 7.68 47.786667 11.946667 74.24 11.946667v28.16h20.48v-29.866667c21.333333-2.56 46.08-7.68 58.88-16.213333 12.8-8.533333 18.773333-19.626667 18.773334-33.28-1.706667-11.093333-5.973333-20.48-16.213334-29.013333z m-82.773333-33.28c-12.8-5.12-29.866667-10.24-34.986667-14.506667-5.12-5.12-6.826667-11.093333-6.826666-17.92 0-15.36 19.626667-24.746667 41.813333-28.16v60.586667z m20.48 91.306666v-58.88c23.893333 9.386667 44.373333 13.653333 43.52 31.573334 0 17.92-20.48 23.893333-43.52 27.306666z" fill="#00A0E9" p-id="8440"></path><path d="M827.060309 433.493333h-33.28v-28.16c-23.04-0.853333-52.053333-4.266667-69.973333-11.946666l-3.413333-1.706667v-40.96l9.386666 5.973333c13.653333 7.68 38.4 13.653333 64.853334 15.36V315.733333c-28.16-9.386667-52.053333-17.92-60.586667-26.453333-9.386667-9.386667-14.506667-20.48-14.506667-34.133333 0-15.36 6.826667-28.16 21.333334-39.253334 12.8-9.386667 34.986667-15.36 54.613333-17.92v-25.6h33.28V196.266667c21.333333 0.853333 29.866667 3.413333 39.253333 8.533333l3.413334 1.706667v39.253333l-9.386667-5.12c-11.093333-5.973333-17.92-9.386667-34.133333-11.093333v58.026666c25.6 8.533333 50.346667 17.066667 60.586666 25.6 11.093333 10.24 17.066667 21.333333 17.066667 34.133334 0 15.36-6.826667 28.16-21.333333 38.4-14.506667 10.24-41.813333 15.36-56.32 17.066666v30.72z m-19.626666-12.8h7.68v-29.013333l5.973333-0.853333c19.626667-1.706667 44.373333-6.826667 55.466667-15.36 10.24-7.68 16.213333-16.213333 16.213333-28.16 0-8.533333-4.266667-17.066667-12.8-23.893334-8.533333-7.68-34.986667-16.213333-58.88-23.893333l-5.973333-1.706667v-80.213333h6.826666c17.066667 0.853333 27.306667 3.413333 36.693334 7.68v-10.24c-6.826667-2.56-15.36-5.12-36.693334-5.12h-5.973333v-23.893333h-7.68v23.893333l-5.973333 0.853333c-17.066667 1.706667-41.813333 6.826667-53.76 16.213334-11.093333 8.533333-16.213333 17.92-16.213334 29.013333 0 9.386667 3.413333 17.92 10.24 24.746667 6.826667 6.826667 32.426667 15.36 57.173334 23.893333l7.68 2.56v78.506667h-6.826667c-20.48-0.853333-47.786667-4.266667-67.413333-12.8v10.24c15.36 5.973333 41.813333 9.386667 67.413333 9.386666h6.826667v28.16z m6.826666-35.84v-75.946666l8.533334 3.413333c3.413333 0.853333 5.973333 2.56 9.386666 3.413333 20.48 7.68 39.253333 14.506667 38.4 34.133334-0.853333 25.6-32.426667 30.72-49.493333 33.28l-6.826667 1.706666z m12.8-57.173333v41.813333C849.246976 365.226667 857.780309 359.253333 857.780309 349.866667c0.853333-10.24-10.24-14.506667-30.72-22.186667 0.853333 0 0.853333 0 0 0z m-19.626666-32.426667l-8.533334-3.413333c-3.413333-1.706667-7.68-2.56-11.946666-4.266667-12.8-4.266667-21.333333-7.68-25.6-11.946666-5.973333-5.973333-9.386667-13.653333-9.386667-22.186667 0-17.066667 17.92-29.866667 46.933333-34.133333l7.68-0.853334v76.8z m-12.8-62.293333c-17.92 4.266667-29.013333 11.946667-29.013334 20.48 0 5.973333 1.706667 10.24 5.12 13.653333 2.56 2.56 12.8 5.973333 20.48 8.533334 0.853333 0 2.56 0.853333 3.413334 0.853333v-43.52z" fill="#00A0E9" p-id="8441"></path><path d="M607.753643 744.106667c0 23.04-19.626667 42.666667-44.373334 42.666666h-15.36c-24.746667 0-44.373333-18.773333-44.373333-42.666666 0 0-20.48-149.333333 52.053333-151.893334 72.533333-1.706667 52.053333 151.893333 52.053334 151.893334z" fill="#545971" p-id="8442"></path></svg>