<?xml version="1.0" standalone="no"?><!DOCTYPE svg PUBLIC "-//W3C//DTD SVG 1.1//EN" "http://www.w3.org/Graphics/SVG/1.1/DTD/svg11.dtd"><svg t="1681696866692" class="icon" viewBox="0 0 1024 1024" version="1.1" xmlns="http://www.w3.org/2000/svg" p-id="3633" xmlns:xlink="http://www.w3.org/1999/xlink" width="200" height="200"><path d="M508.1088 519.8336m-450.816 0a450.816 450.816 0 1 0 901.632 0 450.816 450.816 0 1 0-901.632 0Z" fill="#E9ECFF" p-id="3634"></path><path d="M441.2928 495.4624H280.3712c-24.4736 0-44.3392-19.8656-44.3392-44.3392V290.2016c0-24.4736 19.8656-44.3392 44.3392-44.3392h160.9216c24.4736 0 44.3392 19.8656 44.3392 44.3392v160.9216c0 24.4736-19.8656 44.3392-44.3392 44.3392z" fill="#8486F8" p-id="3635"></path><path d="M743.7824 495.4624h-160.9216c-24.4736 0-44.3392-19.8656-44.3392-44.3392V290.2016c0-24.4736 19.8656-44.3392 44.3392-44.3392h160.9216c24.4736 0 44.3392 19.8656 44.3392 44.3392v160.9216c-0.0512 24.4736-19.8656 44.3392-44.3392 44.3392zM441.2928 793.856H280.3712c-24.4736 0-44.3392-19.8656-44.3392-44.3392v-160.9216c0-24.4736 19.8656-44.3392 44.3392-44.3392h160.9216c24.4736 0 44.3392 19.8656 44.3392 44.3392v160.9216c0 24.4736-19.8656 44.3392-44.3392 44.3392z" fill="#757BF2" p-id="3636"></path><path d="M743.7824 793.856h-160.9216c-24.4736 0-44.3392-19.8656-44.3392-44.3392v-160.9216c0-24.4736 19.8656-44.3392 44.3392-44.3392h160.9216c24.4736 0 44.3392 19.8656 44.3392 44.3392v160.9216c-0.0512 24.4736-19.8656 44.3392-44.3392 44.3392z" fill="#6C6CEA" p-id="3637"></path><path d="M764.0064 549.1712a44.19584 44.19584 0 0 0-20.224-4.9152h-160.9216c-24.4736 0-44.3392 19.8656-44.3392 44.3392v160.9216c0 5.6832 1.1264 11.0592 3.0208 16.0256 97.28-43.52 176.3328-120.5248 222.464-216.3712z" fill="#757BF2" p-id="3638"></path><path d="M236.032 588.5952v55.9616c90.7264-0.3584 175.1552-27.5456 245.7088-73.984a44.30336 44.30336 0 0 0-40.4992-26.3168H280.3712c-24.4736 0-44.3392 19.8656-44.3392 44.3392zM682.0352 245.8624h-99.1744c-24.4736 0-44.3392 19.8656-44.3392 44.3392v160.9216c0 20.2752 13.6192 37.3248 32.256 42.5984 60.2112-67.4816 100.352-153.1904 111.2576-247.8592z" fill="#8486F8" p-id="3639"></path><path d="M485.632 299.1616v-8.96c0-24.4736-19.8656-44.3392-44.3392-44.3392H280.3712c-24.4736 0-44.3392 19.8656-44.3392 44.3392v160.9216c0 6.4 1.3824 12.4928 3.84 18.0224 100.1472-27.3408 186.3168-88.32 245.76-169.984z" fill="#8D92F8" p-id="3640"></path></svg>