<?xml version="1.0" standalone="no"?><!DOCTYPE svg PUBLIC "-//W3C//DTD SVG 1.1//EN" "http://www.w3.org/Graphics/SVG/1.1/DTD/svg11.dtd"><svg t="1672818511537" class="icon" viewBox="0 0 1024 1024" version="1.1" xmlns="http://www.w3.org/2000/svg" p-id="10787" xmlns:xlink="http://www.w3.org/1999/xlink" width="200" height="200"><path d="M511.78 512m-511.78 0a511.78 511.78 0 1 0 1023.56 0 511.78 511.78 0 1 0-1023.56 0Z" fill="#71B84F" p-id="10788"></path><path d="M23.666 358.59c144.958-28.738 318.652 2.536 496.152 187.22 138.618-191.022 310.2-254.838 445.016-272.166 11.834 22.398 21.976 46.066 30.428 70.154-40.994 4.226-86.636 12.678-133.97 29.16l158.482 74.38C1022.31 468.47 1024 490.024 1024 512c0 5.916 0 11.834-0.422 17.328l-247.654-116.642 1.268-2.536c-96.356 52.828-193.558 144.112-270.898 297.944-64.66 128.898-130.166 216.802-192.29 275.546-23.666-10.142-46.488-21.554-68.464-35.078 60.434-51.982 127.208-136.928 195.672-273.432 11.834-24.09 24.512-46.488 37.612-68.042-170.736-183.838-338.516-203.7-473.33-167.778a476.156 476.156 0 0 1 18.596-81.566l-0.424 0.846z" fill="#FFD630" p-id="10789"></path><path d="M518.974 563.56h5.494c1.69-7.608 9.298-20.708 13.102-27.892l41.84-85.792c19.018-38.458 37.19-76.07 56.208-114.106 21.976-43.952 25.78-86.636 0-131.434-20.286-35.5-62.97-64.66-105.654-64.66-31.696 0-53.672 2.958-79.452 20.286-17.75 11.834-30.428 24.512-41.84 43.53-27.048 44.374-23.244 87.904-0.846 132.702 3.38 6.34 109.036 218.916 111.148 227.79v-0.424z" fill="#006775" p-id="10790"></path><path d="M520.242 563.56h4.226c1.69-7.608 9.298-20.708 13.102-27.892l41.84-85.792c19.018-38.458 37.19-76.07 56.208-114.106 21.976-43.952 25.78-86.636 0-131.434-20.286-35.5-62.97-64.66-105.654-64.66h-9.72l-0.002 423.884z" fill="#004F59" p-id="10791"></path><path d="M521.5 263.08m-78.6 0a78.6 78.6 0 1 0 157.2 0 78.6 78.6 0 1 0-157.2 0Z" fill="#E6E6E6" p-id="10792"></path><path d="M520.242 184.472v157.636h1.268c43.53 0 78.606-35.078 78.606-78.606 0-43.528-35.078-78.606-78.606-78.606h-1.268v-0.424z" fill="#CCCCCC" p-id="10793"></path><path d="M521.508 234.34c16.06 0 28.738 12.678 28.738 28.738s-12.678 28.738-28.738 28.738c-15.636 0-28.738-12.678-28.738-28.738s12.68-28.738 28.738-28.738z" fill="#FF873D" p-id="10794"></path><path d="M520.242 234.34v57.476h1.268c16.06 0 28.738-12.678 28.738-28.738s-12.678-28.738-28.738-28.738h-1.268z" fill="#E37936" p-id="10795"></path></svg>